<svg height="480pt" viewBox="-8 0 480 480" width="480pt" xmlns="http://www.w3.org/2000/svg"><path d="m463.632812 451.832031-4.695312-26.632812c4.054688-6.566407 5.574219-14.390625 4.261719-22l-9.75-55.199219-52.785157-299.359375c-2.300781-13.054687-14.746093-21.773437-27.800781-19.472656l-15.757812 2.785156c-5.0625.90625-9.691407 3.433594-13.195313 7.199219-.457031-21.726563-18.179687-39.1093752-39.910156-39.152344h-264c-22.082031.0273438-39.9726562 17.917969-40 40v208c0 4.417969 3.582031 8 8 8s8-3.582031 8-8v-208c0-13.253906 10.746094-24 24-24h264c13.253906 0 24 10.746094 24 24v24h-280c-4.417969 0-8 3.582031-8 8s3.582031 8 8 8h280v320h-280c-4.417969 0-8 3.582031-8 8s3.582031 8 8 8h280v24c0 13.253906-10.746094 24-24 24h-264c-13.253906 0-24-10.746094-24-24v-136c0-4.417969-3.582031-8-8-8s-8 3.582031-8 8v136c.0273438 22.082031 17.917969 39.972656 40 40h264c22.082031-.027344 39.972656-17.917969 40-40v-344.183594l46.398438 263.320313 9.722656 55.144531c1.355468 7.644531 5.457031 14.53125 11.535156 19.367188l4.671875 26.503906c2.015625 11.46875 11.972656 19.835937 23.617187 19.847656 1.414063 0 2.828126-.121094 4.222657-.367188 13.050781-2.304687 21.765625-14.75 19.464843-27.800781zm-47.738281-40.328125-8.328125-47.265625 31.523438-5.597656 8.335937 47.269531c1.53125 8.707032-4.285156 17.007813-12.988281 18.542969-8.707031 1.53125-17.007812-4.28125-18.542969-12.988281zm-61.175781-360.503906c1.214844-1.746094 3.074219-2.933594 5.167969-3.296875l15.753906-2.773437c.464844-.082032.933594-.121094 1.40625-.121094 3.875.011718 7.183594 2.792968 7.855469 6.605468l6.953125 39.394532-31.519531 5.558594-6.945313-39.398438c-.371094-2.085938.109375-4.234375 1.328125-5.96875zm8.402344 61.121094 31.511718-5.554688 41.671876 236.355469-31.503907 5.597656zm78.261718 351.75c-4.347656.765625-8.496093-2.136719-9.261718-6.488282l-2.976563-16.878906c.800781.070313 1.65625.222656 2.503907.222656 4.589843.027344 9.121093-.996093 13.253906-2.992187l2.976562 16.875c.765625 4.351563-2.144531 8.5-6.496094 9.261719zm0 0"/><path d="m240 96h-48c-4.417969 0-8 3.582031-8 8v16h-80c-17.671875 0-32 14.328125-32 32v184c.027344 22.082031 17.917969 39.972656 40 40h160c4.417969 0 8-3.582031 8-8s-3.582031-8-8-8h-160c-13.253906 0-24-10.746094-24-24s10.746094-24 24-24h160c4.417969 0 8-3.582031 8-8v-176c0-4.417969-3.582031-8-8-8h-24v-16c0-4.417969-3.582031-8-8-8zm-40 16h32v49.046875l-11.558594-7.703125c-2.691406-1.792969-6.191406-1.792969-8.882812 0l-11.558594 7.703125zm64 24v160h-152c-8.683594.03125-17.117188 2.914062-24 8.207031v-152.207031c0-8.835938 7.164062-16 16-16h80v40c0 2.949219 1.625 5.664062 4.226562 7.054688 2.601563 1.390624 5.757813 1.238281 8.214844-.398438l19.558594-13.054688 19.558594 13.039063c2.453125 1.636719 5.609375 1.789063 8.207031.402344 2.601563-1.386719 4.230469-4.09375 4.234375-7.042969v-40zm0 0"/><path d="m272 328h-144c-4.417969 0-8 3.582031-8 8s3.582031 8 8 8h144c4.417969 0 8-3.582031 8-8s-3.582031-8-8-8zm0 0"/><path d="m172 208c4.417969 0 8-3.582031 8-8s-3.582031-8-8-8h-48c-4.417969 0-8 3.582031-8 8v64c0 4.417969 3.582031 8 8 8h48c4.417969 0 8-3.582031 8-8s-3.582031-8-8-8h-40v-16h33.144531c4.417969 0 8-3.582031 8-8s-3.582031-8-8-8h-33.144531v-16zm0 0"/><path d="m200 40c0 4.417969-3.582031 8-8 8s-8-3.582031-8-8 3.582031-8 8-8 8 3.582031 8 8zm0 0"/><path d="m168 40c0 4.417969-3.582031 8-8 8s-8-3.582031-8-8 3.582031-8 8-8 8 3.582031 8 8zm0 0"/><path d="m208 448c4.417969 0 8-3.582031 8-8s-3.582031-8-8-8h-64c-4.417969 0-8 3.582031-8 8s3.582031 8 8 8zm0 0"/></svg>