<?xml version="1.0" encoding="utf-8"?>
<!-- Generator: Adobe Illustrator 21.0.0, SVG Export Plug-In . SVG Version: 6.00 Build 0)  -->
<svg version="1.1" id="Layer_1" xmlns="http://www.w3.org/2000/svg" xmlns:xlink="http://www.w3.org/1999/xlink" x="0px" y="0px"
	 viewBox="0 0 480 480" style="enable-background:new 0 0 480 480;" xml:space="preserve">
<path class="learn" d="M112.1,216c0-4.4-3.6-8-8-8h-40v-56c0-4.4-3.6-8-8-8c-4.4,0-8,3.6-8,8v64c0,4.4,3.6,8,8,8h48
	C108.5,224,112.1,220.4,112.1,216z"/>
<path class="learn" d="M184.1,160c4.4,0,8-3.6,8-8c0-4.4-3.6-8-8-8h-48c-4.4,0-8,3.6-8,8v64c0,4.4,3.6,8,8,8h48c4.4,0,8-3.6,8-8
	c0-4.4-3.6-8-8-8h-40v-16h40c4.4,0,8-3.6,8-8c0-4.4-3.6-8-8-8h-40v-16H184.1z"/>
<path class="learn" d="M264.1,224c4.4,0,8-3.6,8-8v-64c0-4.4-3.6-8-8-8h-48c-4.4,0-8,3.6-8,8v64c0,4.4,3.6,8,8,8c4.4,0,8-3.6,8-8
	v-24h32v24C256.1,220.4,259.6,224,264.1,224z M224.1,176v-16h32v16H224.1z"/>
<path class="learn" d="M352,184v-32c0-4.4-3.6-8-8-8h-48c-4.4,0-8,3.6-8,8v64c0,4.4,3.6,8,8,8c4.4,0,8-3.6,8-8v-24h4.7l29.6,29.6
	c3.1,3,8.1,3,11.2-0.1c3.1-3.1,3.1-8.1,0.1-11.2L331.4,192H344C348.5,192,352,188.4,352,184z M336,176h-32v-16h32V176z"/>
<path class="learn" d="M424,144c-4.4,0-8,3.6-8,8v40l-33.6-44.8c-2.1-2.8-5.7-3.9-8.9-2.8c-3.3,1.1-5.5,4.1-5.5,7.6v64
	c0,4.4,3.6,8,8,8c4.4,0,8-3.6,8-8v-40l33.6,44.8c1.5,2,3.9,3.2,6.4,3.2c0.9,0,1.7-0.1,2.5-0.4c3.3-1.1,5.5-4.1,5.5-7.6v-64
	C432,147.6,428.4,144,424,144z"/>
<path d="M280.1,120c0,4.4,3.6,8,8,8c4.4,0,8-3.6,8-8c0-9.5-5.6-18-14.2-21.9c-8.6-3.9-18.7-2.3-25.8,4c-9.1-8.2-22.9-8.2-32,0
	c-7.1-6.3-17.1-7.9-25.8-4c-8.6,3.9-14.2,12.4-14.2,21.9c0,4.4,3.6,8,8,8c4.4,0,8-3.6,8-8c0-4.4,3.6-8,8-8c4.4,0,8,3.6,8,8
	c0,4.4,3.6,8,8,8c4.4,0,8-3.6,8-8c0-4.4,3.6-8,8-8c4.4,0,8,3.6,8,8c0,4.4,3.6,8,8,8c4.4,0,8-3.6,8-8c0-4.4,3.6-8,8-8
	C276.5,112,280.1,115.6,280.1,120z"/>
<path d="M89.9,135.9c4.3,0.9,8.6-1.8,9.5-6.1c14.3-66.2,72.9-113.5,140.7-113.5c67.8,0,126.4,47.3,140.7,113.5
	c0.5,2.9,2.6,5.2,5.3,6.1c2.8,0.9,5.8,0.3,8-1.7c2.1-2,3-5,2.4-7.8C380.6,52.7,315.4,0,240.1,0C164.7,0,99.5,52.7,83.7,126.4
	c-0.4,2.1,0,4.2,1.1,6C86,134.2,87.8,135.4,89.9,135.9z"/>
<path d="M373.4,233.2c-3.7-2.3-8.7-1.2-11,2.6c-10.1,16.3-23.4,30.4-39,41.5c-2.1,1.5-3.4,3.9-3.4,6.5V312c0,13.2-10.7,24-24,24h-8
	v-88c0-4.4-3.6-8-8-8c-4.4,0-8,3.6-8,8v88h-64v-88c0-4.4-3.6-8-8-8c-4.4,0-8,3.6-8,8v88h-8c-13.3,0-24-10.7-24-24v-28.2
	c0-2.6-1.3-5-3.4-6.5c-15.6-11.1-28.9-25.2-39-41.5c-2.3-3.8-7.3-4.9-11-2.6c-3.8,2.3-4.9,7.3-2.6,11c10.5,16.9,24,31.7,39.9,43.6
	V312c0,8.7,2.9,17.1,8.2,24h-0.2c-9.5,0-18.1,5.5-21.9,14.2c-3.8,8.7-2.2,18.8,4.2,25.8c-6.4,7-8,17.1-4.2,25.8
	c3.9,8.7,12.5,14.2,21.9,14.2h9.6c7.6,37.3,40.3,64.1,78.4,64.1c38,0,70.8-26.8,78.4-64.1h9.6c9.5,0,18.1-5.5,21.9-14.2
	c3.8-8.7,2.2-18.8-4.2-25.8c6.4-7,8-17.1,4.2-25.8c-3.9-8.7-12.5-14.2-21.9-14.2h-0.2c5.3-6.9,8.2-15.3,8.2-24v-24.2
	c15.9-11.9,29.4-26.7,39.9-43.6C378.3,240.5,377.1,235.5,373.4,233.2z M240.1,463.9c-29.2,0-54.6-19.7-61.9-48H302
	C294.7,444.2,269.2,464,240.1,463.9z M328.1,399.9H152.1c-4.4,0-8-3.6-8-8c0-4.4,3.6-8,8-8h175.9c4.4,0,8,3.6,8,8
	C336,396.4,332.5,399.9,328.1,399.9z M336,360c0,4.4-3.6,8-8,8H152.1c-4.4,0-8-3.6-8-8c0-4.4,3.6-8,8-8h175.9
	C332.5,352,336,355.5,336,360z"/>
</svg>
