<svg height="480pt" viewBox="0 0 480 480" width="480pt" xmlns="http://www.w3.org/2000/svg"><path d="m292 248c-15.464844 0-28 12.535156-28 28s12.535156 28 28 28 28-12.535156 28-28-12.535156-28-28-28zm0 40c-6.628906 0-12-5.371094-12-12s5.371094-12 12-12 12 5.371094 12 12-5.371094 12-12 12zm0 0"/><path d="m168 112h-80c-4.417969 0-8 3.582031-8 8s3.582031 8 8 8h80c4.417969 0 8-3.582031 8-8s-3.582031-8-8-8zm0 0"/><path d="m64 168h40c4.417969 0 8-3.582031 8-8s-3.582031-8-8-8h-40c-4.417969 0-8 3.582031-8 8s3.582031 8 8 8zm0 0"/><path d="m168 184h-104c-4.417969 0-8 3.582031-8 8s3.582031 8 8 8h104c4.417969 0 8-3.582031 8-8s-3.582031-8-8-8zm0 0"/><path d="m104 216h-40c-4.417969 0-8 3.582031-8 8s3.582031 8 8 8h40c4.417969 0 8-3.582031 8-8s-3.582031-8-8-8zm0 0"/><path d="m168 152h-24c-4.417969 0-8 3.582031-8 8s3.582031 8 8 8h24c4.417969 0 8-3.582031 8-8s-3.582031-8-8-8zm0 0"/><path d="m272 112c-4.417969 0-8 3.582031-8 8v40h-32v-40c0-4.417969-3.582031-8-8-8s-8 3.582031-8 8v48c0 4.417969 3.582031 8 8 8h48c4.417969 0 8-3.582031 8-8v-48c0-4.417969-3.582031-8-8-8zm0 0"/><path d="m328 112h-24c-4.417969 0-8 3.582031-8 8s3.582031 8 8 8h24c4.417969 0 8-3.582031 8-8s-3.582031-8-8-8zm0 0"/><path d="m312 144h-8c-4.417969 0-8 3.582031-8 8s3.582031 8 8 8h8c4.417969 0 8-3.582031 8-8s-3.582031-8-8-8zm0 0"/><path d="m408 40c-4.417969 0-8 3.582031-8 8v48c0 4.417969 3.582031 8 8 8s8-3.582031 8-8v-48c0-4.417969-3.582031-8-8-8zm0 0"/><path d="m480 256v-216c-.027344-22.082031-17.917969-39.9726562-40-40h-384c-22.082031.0273438-39.972656 17.917969-40 40v216c.027344 22.082031 17.917969 39.972656 40 40h160v16c.027344 2.730469.523438 5.4375 1.472656 8h-1.472656c-13.253906 0-24 10.746094-24 24v40c0 13.253906 10.746094 24 24 24h240c13.253906 0 24-10.746094 24-24v-40c-.042969-10.132812-6.445312-19.148438-16-22.527344v-25.472656c-.039062-2.601562-.222656-5.199219-.542969-7.785156 10.367188-7.457032 16.523438-19.441406 16.542969-32.214844zm-248 56v-80c0-4.417969 3.582031-8 8-8h104c4.417969 0 8 3.582031 8 8v88h-112c-4.417969 0-8-3.582031-8-8zm120-112c-.058594-18.628906 12.707031-34.847656 30.832031-39.164062 18.121094-4.316407 36.828125 4.40625 45.171875 21.0625 8.34375 16.652343 4.128906 36.863281-10.175781 48.792968-14.308594 11.929688-34.941406 12.445313-49.828125 1.246094v-.066406c-.054688-9.546875-5.765625-18.15625-14.542969-21.917969-.910156-3.242187-1.398437-6.585937-1.457031-9.953125zm96 96v24h-16v-16c0-8.835938-7.164062-16-16-16h-48v-37.464844c16.828125 8.078125 36.585938 7.152344 52.585938-2.464844 17 9.976563 27.433593 28.21875 27.414062 47.929688zm-80 24v-16h48v16zm96 64c0 4.417969-3.582031 8-8 8h-240c-4.417969 0-8-3.582031-8-8v-40c0-4.417969 3.582031-8 8-8h240c4.417969 0 8 3.582031 8 8zm0-128c-.019531 5.167969-1.730469 10.1875-4.871094 14.289062-5.042968-13.273437-13.929687-24.738281-25.527344-32.929687 16.734376-18.574219 19.132813-45.992187 5.875-67.1875-13.257812-21.195313-38.964843-31.035156-62.988281-24.109375-24.023437 6.925781-40.546875 28.9375-40.488281 53.9375.039062 2.679688.273438 5.355469.703125 8h-96.703125c-13.253906 0-24 10.746094-24 24v48h-160c-13.253906 0-24-10.746094-24-24v-216c0-13.253906 10.746094-24 24-24h384c13.253906 0 24 10.746094 24 24zm0 0"/><path d="m352 40h-224c-4.417969 0-8 3.582031-8 8v32c0 4.417969 3.582031 8 8 8h56c4.417969 0 8-3.582031 8-8s-3.582031-8-8-8h-48v-16h208v16h-112c-4.417969 0-8 3.582031-8 8s3.582031 8 8 8h120c4.417969 0 8-3.582031 8-8v-32c0-4.417969-3.582031-8-8-8zm0 0"/><path d="m360 432c-12.589844 0-24.445312 5.929688-32 16-7.554688-10.070312-19.410156-16-32-16s-24.445312 5.929688-32 16c-7.554688-10.070312-19.410156-16-32-16s-24.445312 5.929688-32 16c-7.554688-10.070312-19.410156-16-32-16s-24.445312 5.929688-32 16c-7.554688-10.070312-19.410156-16-32-16s-24.445312 5.929688-32 16c-10.332031-13.773438-28.316406-19.390625-44.648438-13.949219-16.335937 5.445313-27.351562 20.730469-27.351562 37.949219 0 4.417969 3.582031 8 8 8s8-3.582031 8-8c0-13.253906 10.746094-24 24-24s24 10.746094 24 24c0 4.417969 3.582031 8 8 8s8-3.582031 8-8c0-13.253906 10.746094-24 24-24s24 10.746094 24 24c0 4.417969 3.582031 8 8 8s8-3.582031 8-8c0-13.253906 10.746094-24 24-24s24 10.746094 24 24c0 4.417969 3.582031 8 8 8s8-3.582031 8-8c0-13.253906 10.746094-24 24-24s24 10.746094 24 24c0 4.417969 3.582031 8 8 8s8-3.582031 8-8c0-13.253906 10.746094-24 24-24s24 10.746094 24 24c0 4.417969 3.582031 8 8 8s8-3.582031 8-8c0-13.253906 10.746094-24 24-24s24 10.746094 24 24c0 4.417969 3.582031 8 8 8s8-3.582031 8-8c-.027344-22.082031-17.917969-39.972656-40-40zm0 0"/></svg>